<?xml version="1.0" encoding="UTF-8"?>
<svg id="Layer_2" data-name="Layer 2" xmlns="http://www.w3.org/2000/svg" xmlns:xlink="http://www.w3.org/1999/xlink" viewBox="0 0 44 44">
  <defs>
    <style>
      .cls-1 {
        fill: url(#linear-gradient-2);
      }

      .cls-2 {
        fill: url(#linear-gradient-6);
      }

      .cls-3 {
        fill: url(#linear-gradient-5);
      }

      .cls-4 {
        fill: url(#linear-gradient-3);
      }

      .cls-5 {
        fill: url(#linear-gradient);
      }

      .cls-6 {
        fill: url(#linear-gradient-4);
      }
    </style>
    <linearGradient id="linear-gradient" x1="19.71" y1="20.14" x2="-.94" y2="1.11" gradientUnits="userSpaceOnUse">
      <stop offset="0" stop-color="#c16dff"/>
      <stop offset=".11" stop-color="#b85dfb"/>
      <stop offset=".32" stop-color="#a136f2"/>
      <stop offset=".43" stop-color="#941eed"/>
      <stop offset=".93" stop-color="#6d00cf"/>
    </linearGradient>
    <linearGradient id="linear-gradient-2" x1="17.36" y1="23.74" x2="-3.25" y2="3.13" gradientUnits="userSpaceOnUse">
      <stop offset="0" stop-color="#d493ff"/>
      <stop offset=".93" stop-color="#aa3cfb"/>
    </linearGradient>
    <linearGradient id="linear-gradient-3" x1="5.23" y1="41.13" x2="19.23" y2="24.09" gradientUnits="userSpaceOnUse">
      <stop offset="0" stop-color="#cc92fc"/>
      <stop offset=".08" stop-color="#c687fa"/>
      <stop offset=".2" stop-color="#b96af6"/>
      <stop offset=".36" stop-color="#a23cf0"/>
      <stop offset=".46" stop-color="#941eed"/>
      <stop offset=".57" stop-color="#8210df"/>
      <stop offset=".71" stop-color="#7204d3"/>
      <stop offset=".83" stop-color="#6d00cf"/>
    </linearGradient>
    <linearGradient id="linear-gradient-4" x1="-371.96" y1="19.42" x2="-392.61" y2=".38" gradientTransform="translate(-347.67) rotate(-180) scale(1 -1)" xlink:href="#linear-gradient"/>
    <linearGradient id="linear-gradient-5" x1="-374.31" y1="23.02" x2="-394.92" y2="2.4" gradientTransform="translate(-347.67) rotate(-180) scale(1 -1)" xlink:href="#linear-gradient-2"/>
    <linearGradient id="linear-gradient-6" x1="-386.44" y1="40.41" x2="-372.44" y2="23.37" gradientTransform="translate(-347.67) rotate(-180) scale(1 -1)" xlink:href="#linear-gradient-3"/>
  </defs>
  <g id="Layer_8" data-name="Layer 8">
    <g>
      <g>
        <path class="cls-5" d="m20.96,25.49c-.31-.66-.88-1.49-1.89-2.5-.49-.48-1.08-1.01-1.8-1.57-.12-.09-.24-.18-.36-.27-.12-.09-.24-.18-.37-.27-4.65-3.37-8.32-3.43-11.85-8.27C2.14,9.12,1.61,4.77,2.17.97c.03-.08.07-.16.11-.24,0,0,.31,1.09,1.41,2.4.36.43,2.6,2.61,6.07,3.49,3.53.9,6.51,3.45,7.33,4.42.8.95,3.02,2.89,3.94,9.68,0,.04.01.08.02.12.01.09.02.19.04.29.12.98.04,2.66-.12,4.37Z"/>
        <path class="cls-1" d="m20.96,25.5c-.21,2.16-.57,4.38-.85,5.29,0,0,0,0,0,.01-.01.04-.03.09-.04.13,0,0,0,.02,0,.03,0,.02-.02.05-.03.07-.11-.83-.72-2.27-3.05-4.31-.29-.25-.61-.52-.95-.79-.24-.19-.48-.37-.72-.55-1.26-.91-2.44-1.58-3.57-2.17-3.05-1.59-5.7-2.57-8.28-6.1C-.22,12.11.27,5.36,2.17.97c-.56,3.8-.03,8.15,2.52,11.65,3.54,4.84,7.2,4.9,11.85,8.27.12.09.24.18.37.27.12.09.24.18.36.27.72.56,1.31,1.09,1.8,1.57,1.02,1,1.58,1.84,1.89,2.5Z"/>
        <path class="cls-4" d="m20.05,30.96c-1.06,3.21-1.73,6-4.66,9-4.29,4.4-10.75,4.71-15.14,3.27-.08-.03-.17-.05-.25-.08,0,0,.99-.45,2.11-1.76.36-.42,2.15-3.02,2.58-6.74.43-3.78,2.48-7.2,3.3-8.16.53-.62,1.39-1.94,3.73-3.28,1.13.59,2.31,1.26,3.57,2.17.24.17.48.35.72.55.35.27.67.54.95.79,2.34,2.04,2.95,3.49,3.05,4.31,0-.02.02-.05.03-.07Z"/>
      </g>
      <g>
        <path class="cls-6" d="m23.04,24.77c.31-.66.88-1.49,1.89-2.5.49-.48,1.08-1.01,1.8-1.57.12-.09.24-.18.36-.27.12-.09.24-.18.37-.27,4.65-3.37,8.32-3.43,11.85-8.27,2.55-3.49,3.08-7.84,2.52-11.65-.03-.08-.07-.16-.11-.24,0,0-.31,1.09-1.41,2.4-.36.43-2.6,2.61-6.07,3.49-3.53.9-6.51,3.45-7.33,4.42-.8.95-3.02,2.89-3.94,9.68,0,.04-.01.08-.02.12-.01.09-.02.19-.04.29-.12.98-.04,2.66.12,4.37Z"/>
        <path class="cls-3" d="m23.04,24.77c.21,2.16.57,4.38.85,5.29,0,0,0,0,0,.01.01.04.03.09.04.13,0,0,0,.02,0,.03,0,.02.02.05.03.07.11-.83.72-2.27,3.05-4.31.29-.25.61-.52.95-.79.24-.19.48-.37.72-.55,1.26-.91,2.44-1.58,3.57-2.17,3.05-1.59,5.7-2.57,8.28-6.1,3.65-5,3.17-11.75,1.26-16.15.56,3.8.03,8.15-2.52,11.65-3.54,4.84-7.2,4.9-11.85,8.27-.12.09-.24.18-.37.27-.12.09-.24.18-.36.27-.72.56-1.31,1.09-1.8,1.57-1.02,1-1.58,1.84-1.89,2.5Z"/>
        <path class="cls-2" d="m23.95,30.24c1.06,3.21,1.73,6,4.66,9,4.29,4.4,10.75,4.71,15.14,3.27.08-.03.17-.05.25-.08,0,0-.99-.45-2.11-1.76-.36-.42-2.15-3.02-2.58-6.74-.43-3.78-2.48-7.2-3.3-8.16-.53-.62-1.39-1.94-3.73-3.28-1.13.59-2.31,1.26-3.57,2.17-.24.17-.48.35-.72.55-.35.27-.67.54-.95.79-2.34,2.04-2.95,3.49-3.05,4.31,0-.02-.02-.05-.03-.07Z"/>
      </g>
    </g>
  </g>
</svg>